
<global>
amp_veltrack=0
ampeg_attack=0.01
ampeg_decay=1.5
ampeg_release=0.55
ampeg_sustain=0
</global>

<group>
group_label=RR1_43-84
seq_length=4
seq_position=1
xf_cccurve=gain
xfin_hicc1=84
xfin_locc1=43
xfout_hicc1=125
xfout_locc1=84

<region>
hikey=C4
hivel=127
lokey=G3
lovel=1
offset=1457
pitch_keycenter=G3
sample=Basses_staccato_MF_G4_RR1.opus
</region>

<region>
hivel=127
key=G2
lovel=1
offset=1613
sample=Basses_staccato_MF_G3_RR1.opus
</region>

<region>
hivel=127
key=G1
lovel=1
offset=1840
sample=Basses_staccato_MF_G2_RR1.opus
</region>

<region>
hivel=127
key=G#2
lovel=1
offset=612
sample=Basses_staccato_MF_G#3_RR1.opus
</region>

<region>
hivel=127
key=G#1
lovel=1
offset=455
sample=Basses_staccato_MF_G#2_RR1.opus
</region>

<region>
hivel=127
key=F3
lovel=1
offset=1301
sample=Basses_staccato_MF_F4_RR1.opus
</region>

<region>
hivel=127
key=F2
lovel=1
offset=642
sample=Basses_staccato_MF_F3_RR1.opus
</region>

<region>
hivel=127
key=F1
lovel=1
offset=1696
sample=Basses_staccato_MF_F2_RR1.opus
</region>

<region>
hivel=127
key=F#3
lovel=1
offset=3231
sample=Basses_staccato_MF_F#4_RR1.opus
</region>

<region>
hivel=127
key=F#2
lovel=1
offset=845
sample=Basses_staccato_MF_F#3_RR1.opus
</region>

<region>
hivel=127
key=F#1
lovel=1
offset=1240
sample=Basses_staccato_MF_F#2_RR1.opus
</region>

<region>
hivel=127
key=E3
lovel=1
offset=1066
sample=Basses_staccato_MF_E4_RR1.opus
</region>

<region>
hivel=127
key=E2
lovel=1
offset=826
sample=Basses_staccato_MF_E3_RR1.opus
</region>

<region>
hivel=127
key=E1
lovel=1
offset=724
sample=Basses_staccato_MF_E2_RR1.opus
</region>

<region>
hivel=127
key=D3
lovel=1
offset=519
sample=Basses_staccato_MF_D4_RR1.opus
</region>

<region>
hivel=127
key=D2
lovel=1
offset=880
sample=Basses_staccato_MF_D3_RR1.opus
</region>

<region>
end=39313
fade_out=38855
hivel=127
key=D1
lovel=1
offset=367
sample=Basses_staccato_MF_D2_RR1.opus
</region>

<region>
hivel=127
key=D#3
lovel=1
offset=742
sample=Basses_staccato_MF_D#4_RR1.opus
</region>

<region>
hivel=127
key=D#2
lovel=1
offset=3407
sample=Basses_staccato_MF_D#3_RR1.opus
</region>

<region>
hivel=127
key=D#1
lovel=1
offset=1384
sample=Basses_staccato_MF_D#2_RR1.opus
</region>

<region>
hivel=127
key=C3
lovel=1
offset=606
sample=Basses_staccato_MF_C4_RR1.opus
</region>

<region>
hivel=127
key=C2
lovel=1
offset=1225
sample=Basses_staccato_MF_C3_RR1.opus
</region>

<region>
hivel=127
key=C1
lovel=1
offset=880
sample=Basses_staccato_MF_C2_RR1.opus
</region>

<region>
hivel=127
key=C#3
lovel=1
offset=585
sample=Basses_staccato_MF_C#4_RR1.opus
</region>

<region>
hivel=127
key=C#2
lovel=1
offset=2508
sample=Basses_staccato_MF_C#3_RR1.opus
</region>

<region>
hivel=127
key=C#1
lovel=1
offset=3712
sample=Basses_staccato_MF_C#2_RR1.opus
</region>

<region>
hivel=127
key=B2
lovel=1
offset=696
sample=Basses_staccato_MF_B3_RR1.opus
</region>

<region>
hivel=127
key=B1
lovel=1
offset=2712
sample=Basses_staccato_MF_B2_RR1.opus
</region>

<region>
hivel=127
key=A2
lovel=1
offset=1309
sample=Basses_staccato_MF_A3_RR1.opus
</region>

<region>
hivel=127
key=A1
lovel=1
offset=1321
sample=Basses_staccato_MF_A2_RR1.opus
</region>

<region>
hivel=127
key=A#2
lovel=1
offset=3238
sample=Basses_staccato_MF_A#3_RR1.opus
</region>

<region>
hivel=127
key=A#1
lovel=1
offset=2365
sample=Basses_staccato_MF_A#2_RR1.opus
</region>
</group>

<group>
group_label=RR1_85-127
seq_length=4
seq_position=1
xf_cccurve=gain
xfin_hicc1=127
xfin_locc1=85
xfout_hicc1=127
xfout_locc1=127

<region>
hikey=C4
hivel=127
lokey=G3
lovel=1
offset=285
pitch_keycenter=G3
sample=Basses_staccato_FF_G4_RR1.opus
</region>

<region>
hivel=127
key=G2
lovel=1
sample=Basses_staccato_FF_G3_RR1.opus
</region>

<region>
hivel=127
key=G1
lovel=1
sample=Basses_staccato_FF_G2_RR1.opus
</region>

<region>
hivel=127
key=G#2
lovel=1
sample=Basses_staccato_FF_G#3_RR1.opus
</region>

<region>
hivel=127
key=G#1
lovel=1
offset=644
sample=Basses_staccato_FF_G#2_RR1.opus
</region>

<region>
hivel=127
key=F3
lovel=1
offset=1014
sample=Basses_staccato_FF_F4_RR1.opus
</region>

<region>
hivel=127
key=F2
lovel=1
offset=1355
sample=Basses_staccato_FF_F3_RR1.opus
</region>

<region>
hivel=127
key=F1
lovel=1
sample=Basses_staccato_FF_F2_RR1.opus
</region>

<region>
hivel=127
key=F#3
lovel=1
offset=1590
sample=Basses_staccato_FF_F#4_RR1.opus
</region>

<region>
hivel=127
key=F#2
lovel=1
sample=Basses_staccato_FF_F#3_RR1.opus
</region>

<region>
hivel=127
key=F#1
lovel=1
offset=168
sample=Basses_staccato_FF_F#2_RR1.opus
</region>

<region>
hivel=127
key=E3
lovel=1
offset=906
sample=Basses_staccato_FF_E4_RR1.opus
</region>

<region>
hivel=127
key=E2
lovel=1
sample=Basses_staccato_FF_E3_RR1.opus
</region>

<region>
hivel=127
key=E1
lovel=1
sample=Basses_staccato_FF_E2_RR1.opus
</region>

<region>
hivel=127
key=D3
lovel=1
sample=Basses_staccato_FF_D4_RR1.opus
</region>

<region>
hivel=127
key=D2
lovel=1
offset=181
sample=Basses_staccato_FF_D3_RR1.opus
</region>

<region>
hivel=127
key=D1
lovel=1
offset=13
sample=Basses_staccato_FF_D2_RR1.opus
</region>

<region>
hivel=127
key=D#3
lovel=1
offset=745
sample=Basses_staccato_FF_D#4_RR1.opus
</region>

<region>
hivel=127
key=D#2
lovel=1
offset=93
sample=Basses_staccato_FF_D#3_RR1.opus
</region>

<region>
hivel=127
key=D#1
lovel=1
offset=780
sample=Basses_staccato_FF_D#2_RR1.opus
</region>

<region>
hivel=127
key=C3
lovel=1
offset=914
sample=Basses_staccato_FF_C4_RR1.opus
</region>

<region>
hivel=127
key=C2
lovel=1
sample=Basses_staccato_FF_C3_RR1.opus
</region>

<region>
hivel=127
key=C1
lovel=1
offset=364
sample=Basses_staccato_FF_C2_RR1.opus
</region>

<region>
hivel=127
key=C#3
lovel=1
offset=858
sample=Basses_staccato_FF_C#4_RR1.opus
</region>

<region>
hivel=127
key=C#2
lovel=1
sample=Basses_staccato_FF_C#3_RR1.opus
</region>

<region>
hivel=127
key=C#1
lovel=1
offset=475
sample=Basses_staccato_FF_C#2_RR1.opus
</region>

<region>
hivel=127
key=B2
lovel=1
offset=1247
sample=Basses_staccato_FF_B3_RR1.opus
</region>

<region>
hivel=127
key=B1
lovel=1
offset=272
sample=Basses_staccato_FF_B2_RR1.opus
</region>

<region>
hivel=127
key=A2
lovel=1
offset=1312
sample=Basses_staccato_FF_A3_RR1.opus
</region>

<region>
hivel=127
key=A1
lovel=1
offset=406
sample=Basses_staccato_FF_A2_RR1.opus
</region>

<region>
hivel=127
key=A#2
lovel=1
offset=805
sample=Basses_staccato_FF_A#3_RR1.opus
</region>

<region>
hivel=127
key=A#1
lovel=1
sample=Basses_staccato_FF_A#2_RR1.opus
</region>
</group>

<group>
group_label=RR1_0-42
seq_length=4
seq_position=1
xf_cccurve=gain
xfin_hicc1=42
xfout_hicc1=84
xfout_locc1=42

<region>
hikey=C4
hivel=127
lokey=G3
lovel=1
offset=1324
pitch_keycenter=G3
sample=Basses_staccato_PP_G4_RR1.opus
</region>

<region>
hivel=127
key=G2
lovel=1
offset=5026
sample=Basses_staccato_PP_G3_RR1.opus
</region>

<region>
hivel=127
key=G1
lovel=1
offset=5314
sample=Basses_staccato_PP_G2_RR1.opus
</region>

<region>
hivel=127
key=G#2
lovel=1
offset=3758
sample=Basses_staccato_PP_G#3_RR1.opus
</region>

<region>
hivel=127
key=G#1
lovel=1
offset=3252
sample=Basses_staccato_PP_G#2_RR1.opus
</region>

<region>
hivel=127
key=F3
lovel=1
offset=6806
sample=Basses_staccato_PP_F4_RR1.opus
</region>

<region>
hivel=127
key=F2
lovel=1
offset=715
sample=Basses_staccato_PP_F3_RR1.opus
</region>

<region>
hivel=127
key=F1
lovel=1
offset=8396
sample=Basses_staccato_PP_F2_RR1.opus
</region>

<region>
hivel=127
key=F#3
lovel=1
offset=3911
sample=Basses_staccato_PP_F#4_RR1.opus
</region>

<region>
hivel=127
key=F#2
lovel=1
offset=1669
sample=Basses_staccato_PP_F#3_RR1.opus
</region>

<region>
hivel=127
key=F#1
lovel=1
offset=4361
sample=Basses_staccato_PP_F#2_RR1.opus
</region>

<region>
hivel=127
key=E3
lovel=1
offset=7440
sample=Basses_staccato_PP_E4_RR1.opus
</region>

<region>
hivel=127
key=E2
lovel=1
offset=1339
sample=Basses_staccato_PP_E3_RR1.opus
</region>

<region>
hivel=127
key=E1
lovel=1
offset=3081
sample=Basses_staccato_PP_E2_RR1.opus
</region>

<region>
hivel=127
key=D3
lovel=1
offset=3522
sample=Basses_staccato_PP_D4_RR1.opus
</region>

<region>
hivel=127
key=D2
lovel=1
offset=4572
sample=Basses_staccato_PP_D3_RR1.opus
</region>

<region>
hivel=127
key=D1
lovel=1
offset=4684
sample=Basses_staccato_PP_D2_RR1.opus
</region>

<region>
hivel=127
key=D#3
lovel=1
offset=7039
sample=Basses_staccato_PP_D#4_RR1.opus
</region>

<region>
hivel=127
key=D#2
lovel=1
offset=2734
sample=Basses_staccato_PP_D#3_RR1.opus
</region>

<region>
hivel=127
key=D#1
lovel=1
offset=3686
sample=Basses_staccato_PP_D#2_RR1.opus
</region>

<region>
hivel=127
key=C3
lovel=1
offset=5095
sample=Basses_staccato_PP_C4_RR1.opus
</region>

<region>
hivel=127
key=C2
lovel=1
offset=4760
sample=Basses_staccato_PP_C3_RR1.opus
</region>

<region>
hivel=127
key=C1
lovel=1
offset=1156
sample=Basses_staccato_PP_C2_RR1.opus
</region>

<region>
hivel=127
key=C#3
lovel=1
offset=6178
sample=Basses_staccato_PP_C#4_RR1.opus
</region>

<region>
hivel=127
key=C#2
lovel=1
offset=1642
sample=Basses_staccato_PP_C#3_RR1.opus
</region>

<region>
hivel=127
key=C#1
lovel=1
offset=2250
sample=Basses_staccato_PP_C#2_RR1.opus
</region>

<region>
hivel=127
key=B2
lovel=1
offset=3745
sample=Basses_staccato_PP_B3_RR1.opus
</region>

<region>
hivel=127
key=B1
lovel=1
offset=2933
sample=Basses_staccato_PP_B2_RR1.opus
</region>

<region>
hivel=127
key=A2
lovel=1
offset=3115
sample=Basses_staccato_PP_A3_RR1.opus
</region>

<region>
hivel=127
key=A1
lovel=1
offset=2607
sample=Basses_staccato_PP_A2_RR1.opus
</region>

<region>
hivel=127
key=A#2
lovel=1
offset=5466
sample=Basses_staccato_PP_A#3_RR1.opus
</region>

<region>
hivel=127
key=A#1
lovel=1
offset=4151
sample=Basses_staccato_PP_A#2_RR1.opus
</region>
</group>

<group>
group_label=RR2_43-84
seq_length=4
seq_position=2
xf_cccurve=gain
xfin_hicc1=84
xfin_locc1=43
xfout_hicc1=125
xfout_locc1=84

<region>
hikey=C4
hivel=127
lokey=G3
lovel=1
offset=6541
pitch_keycenter=G3
sample=Basses_staccato_MF_G4_RR2.opus
</region>

<region>
hivel=127
key=G2
lovel=1
offset=5761
sample=Basses_staccato_MF_G3_RR2.opus
</region>

<region>
hivel=127
key=G1
lovel=1
offset=4198
sample=Basses_staccato_MF_G2_RR2.opus
</region>

<region>
hivel=127
key=G#2
lovel=1
offset=1371
sample=Basses_staccato_MF_G#3_RR2.opus
</region>

<region>
hivel=127
key=G#1
lovel=1
offset=1382
sample=Basses_staccato_MF_G#2_RR2.opus
</region>

<region>
hivel=127
key=F3
lovel=1
offset=1898
sample=Basses_staccato_MF_F4_RR2.opus
</region>

<region>
hivel=127
key=F2
lovel=1
offset=3154
sample=Basses_staccato_MF_F3_RR2.opus
</region>

<region>
hivel=127
key=F1
lovel=1
offset=1085
sample=Basses_staccato_MF_F2_RR2.opus
</region>

<region>
hivel=127
key=F#3
lovel=1
offset=7011
sample=Basses_staccato_MF_F#4_RR2.opus
</region>

<region>
hivel=127
key=F#2
lovel=1
offset=3152
sample=Basses_staccato_MF_F#3_RR2.opus
</region>

<region>
hivel=127
key=F#1
lovel=1
offset=3229
sample=Basses_staccato_MF_F#2_RR2.opus
</region>

<region>
hivel=127
key=E3
lovel=1
offset=6523
sample=Basses_staccato_MF_E4_RR2.opus
</region>

<region>
hivel=127
key=E2
lovel=1
offset=5773
sample=Basses_staccato_MF_E3_RR2.opus
</region>

<region>
hivel=127
key=E1
lovel=1
offset=7985
sample=Basses_staccato_MF_E2_RR2.opus
</region>

<region>
hivel=127
key=D3
lovel=1
offset=5807
sample=Basses_staccato_MF_D4_RR2.opus
</region>

<region>
hivel=127
key=D2
lovel=1
offset=818
sample=Basses_staccato_MF_D3_RR2.opus
</region>

<region>
hivel=127
key=D1
lovel=1
offset=4511
sample=Basses_staccato_MF_D2_RR2.opus
</region>

<region>
hivel=127
key=D#3
lovel=1
offset=2846
sample=Basses_staccato_MF_D#4_RR2.opus
</region>

<region>
hivel=127
key=D#2
lovel=1
offset=1417
sample=Basses_staccato_MF_D#3_RR2.opus
</region>

<region>
hivel=127
key=D#1
lovel=1
offset=804
sample=Basses_staccato_MF_D#2_RR2.opus
</region>

<region>
hivel=127
key=C3
lovel=1
offset=1724
sample=Basses_staccato_MF_C4_RR2.opus
</region>

<region>
hivel=127
key=C2
lovel=1
offset=4421
sample=Basses_staccato_MF_C3_RR2.opus
</region>

<region>
hivel=127
key=C1
lovel=1
offset=4296
sample=Basses_staccato_MF_C2_RR2.opus
</region>

<region>
hivel=127
key=C#3
lovel=1
offset=1903
sample=Basses_staccato_MF_C#4_RR2.opus
</region>

<region>
hivel=127
key=C#2
lovel=1
offset=3254
sample=Basses_staccato_MF_C#3_RR2.opus
</region>

<region>
hivel=127
key=C#1
lovel=1
offset=4184
sample=Basses_staccato_MF_C#2_RR2.opus
</region>

<region>
hivel=127
key=B2
lovel=1
offset=6812
sample=Basses_staccato_MF_B3_RR2.opus
</region>

<region>
hivel=127
key=B1
lovel=1
offset=3527
sample=Basses_staccato_MF_B2_RR2.opus
</region>

<region>
hivel=127
key=A2
lovel=1
offset=7539
sample=Basses_staccato_MF_A3_RR2.opus
</region>

<region>
hivel=127
key=A1
lovel=1
offset=4710
sample=Basses_staccato_MF_A2_RR2.opus
</region>

<region>
hivel=127
key=A#2
lovel=1
offset=2759
sample=Basses_staccato_MF_A#3_RR2.opus
</region>

<region>
hivel=127
key=A#1
lovel=1
offset=4171
sample=Basses_staccato_MF_A#2_RR2.opus
</region>
</group>

<group>
group_label=RR2_85-127
seq_length=4
seq_position=2
xf_cccurve=gain
xfin_hicc1=127
xfin_locc1=85
xfout_hicc1=127
xfout_locc1=127

<region>
hikey=C4
hivel=127
lokey=G3
lovel=1
pitch_keycenter=G3
sample=Basses_staccato_FF_G4_RR2.opus
</region>

<region>
hivel=127
key=G2
lovel=1
offset=2212
sample=Basses_staccato_FF_G3_RR2.opus
</region>

<region>
hivel=127
key=G1
lovel=1
offset=191
sample=Basses_staccato_FF_G2_RR2.opus
</region>

<region>
hivel=127
key=G#2
lovel=1
offset=2105
sample=Basses_staccato_FF_G#3_RR2.opus
</region>

<region>
hivel=127
key=G#1
lovel=1
sample=Basses_staccato_FF_G#2_RR2.opus
</region>

<region>
hivel=127
key=F3
lovel=1
offset=5173
sample=Basses_staccato_FF_F4_RR2.opus
</region>

<region>
hivel=127
key=F2
lovel=1
offset=915
sample=Basses_staccato_FF_F3_RR2.opus
</region>

<region>
hivel=127
key=F1
lovel=1
sample=Basses_staccato_FF_F2_RR2.opus
</region>

<region>
hivel=127
key=F#3
lovel=1
offset=5044
sample=Basses_staccato_FF_F#4_RR2.opus
</region>

<region>
hivel=127
key=F#2
lovel=1
offset=3914
sample=Basses_staccato_FF_F#3_RR2.opus
</region>

<region>
hivel=127
key=F#1
lovel=1
offset=579
sample=Basses_staccato_FF_F#2_RR2.opus
</region>

<region>
hivel=127
key=E3
lovel=1
offset=2103
sample=Basses_staccato_FF_E4_RR2.opus
</region>

<region>
hivel=127
key=E2
lovel=1
offset=4912
sample=Basses_staccato_FF_E3_RR2.opus
</region>

<region>
hivel=127
key=E1
lovel=1
offset=365
sample=Basses_staccato_FF_E2_RR2.opus
</region>

<region>
hivel=127
key=D3
lovel=1
sample=Basses_staccato_FF_D4_RR2.opus
</region>

<region>
hivel=127
key=D2
lovel=1
offset=25
sample=Basses_staccato_FF_D3_RR2.opus
</region>

<region>
hivel=127
key=D1
lovel=1
offset=391
sample=Basses_staccato_FF_D2_RR2.opus
</region>

<region>
hivel=127
key=D#3
lovel=1
offset=933
sample=Basses_staccato_FF_D#4_RR2.opus
</region>

<region>
hivel=127
key=D#2
lovel=1
sample=Basses_staccato_FF_D#3_RR2.opus
</region>

<region>
hivel=127
key=D#1
lovel=1
offset=541
sample=Basses_staccato_FF_D#2_RR2.opus
</region>

<region>
hivel=127
key=C3
lovel=1
offset=176
sample=Basses_staccato_FF_C4_RR2.opus
</region>

<region>
hivel=127
key=C2
lovel=1
sample=Basses_staccato_FF_C3_RR2.opus
</region>

<region>
hivel=127
key=C1
lovel=1
offset=580
sample=Basses_staccato_FF_C2_RR2.opus
</region>

<region>
hivel=127
key=C#3
lovel=1
offset=4421
sample=Basses_staccato_FF_C#4_RR2.opus
</region>

<region>
hivel=127
key=C#2
lovel=1
offset=8255
sample=Basses_staccato_FF_C#3_RR2.opus
</region>

<region>
hivel=127
key=C#1
lovel=1
offset=671
sample=Basses_staccato_FF_C#2_RR2.opus
</region>

<region>
hivel=127
key=B2
lovel=1
sample=Basses_staccato_FF_B3_RR2.opus
</region>

<region>
hivel=127
key=B1
lovel=1
offset=5534
sample=Basses_staccato_FF_B2_RR2.opus
</region>

<region>
hivel=127
key=A2
lovel=1
offset=759
sample=Basses_staccato_FF_A3_RR2.opus
</region>

<region>
hivel=127
key=A1
lovel=1
offset=427
sample=Basses_staccato_FF_A2_RR2.opus
</region>

<region>
hivel=127
key=A#2
lovel=1
offset=3017
sample=Basses_staccato_FF_A#3_RR2.opus
</region>

<region>
hivel=127
key=A#1
lovel=1
offset=882
sample=Basses_staccato_FF_A#2_RR2.opus
</region>
</group>

<group>
group_label=RR2_0-42
seq_length=4
seq_position=2
xf_cccurve=gain
xfin_hicc1=42
xfout_hicc1=84
xfout_locc1=42

<region>
hikey=C4
hivel=127
lokey=G3
lovel=1
offset=5911
pitch_keycenter=G3
sample=Basses_staccato_PP_G4_RR2.opus
</region>

<region>
hivel=127
key=G2
lovel=1
offset=7046
sample=Basses_staccato_PP_G3_RR2.opus
</region>

<region>
hivel=127
key=G1
lovel=1
offset=4258
sample=Basses_staccato_PP_G2_RR2.opus
</region>

<region>
hivel=127
key=G#2
lovel=1
offset=6995
sample=Basses_staccato_PP_G#3_RR2.opus
</region>

<region>
hivel=127
key=G#1
lovel=1
offset=4259
sample=Basses_staccato_PP_G#2_RR2.opus
</region>

<region>
hivel=127
key=F3
lovel=1
offset=4392
sample=Basses_staccato_PP_F4_RR2.opus
</region>

<region>
hivel=127
key=F2
lovel=1
offset=7039
sample=Basses_staccato_PP_F3_RR2.opus
</region>

<region>
hivel=127
key=F1
lovel=1
offset=6937
sample=Basses_staccato_PP_F2_RR2.opus
</region>

<region>
hivel=127
key=F#3
lovel=1
offset=6411
sample=Basses_staccato_PP_F#4_RR2.opus
</region>

<region>
hivel=127
key=F#2
lovel=1
offset=3981
sample=Basses_staccato_PP_F#3_RR2.opus
</region>

<region>
hivel=127
key=F#1
lovel=1
offset=8266
sample=Basses_staccato_PP_F#2_RR2.opus
</region>

<region>
hivel=127
key=E3
lovel=1
offset=2908
sample=Basses_staccato_PP_E4_RR2.opus
</region>

<region>
hivel=127
key=E2
lovel=1
offset=3351
sample=Basses_staccato_PP_E3_RR2.opus
</region>

<region>
hivel=127
key=E1
lovel=1
offset=3615
sample=Basses_staccato_PP_E2_RR2.opus
</region>

<region>
hivel=127
key=D3
lovel=1
offset=4414
sample=Basses_staccato_PP_D4_RR2.opus
</region>

<region>
hivel=127
key=D2
lovel=1
offset=3687
sample=Basses_staccato_PP_D3_RR2.opus
</region>

<region>
hivel=127
key=D1
lovel=1
offset=4126
sample=Basses_staccato_PP_D2_RR2.opus
</region>

<region>
hivel=127
key=D#3
lovel=1
offset=9241
sample=Basses_staccato_PP_D#4_RR2.opus
</region>

<region>
hivel=127
key=D#2
lovel=1
offset=6917
sample=Basses_staccato_PP_D#3_RR2.opus
</region>

<region>
hivel=127
key=D#1
lovel=1
offset=8454
sample=Basses_staccato_PP_D#2_RR2.opus
</region>

<region>
hivel=127
key=C3
lovel=1
offset=7104
sample=Basses_staccato_PP_C4_RR2.opus
</region>

<region>
hivel=127
key=C2
lovel=1
offset=6717
sample=Basses_staccato_PP_C3_RR2.opus
</region>

<region>
hivel=127
key=C1
lovel=1
offset=6021
sample=Basses_staccato_PP_C2_RR2.opus
</region>

<region>
hivel=127
key=C#3
lovel=1
offset=9156
sample=Basses_staccato_PP_C#4_RR2.opus
</region>

<region>
hivel=127
key=C#2
lovel=1
offset=5780
sample=Basses_staccato_PP_C#3_RR2.opus
</region>

<region>
hivel=127
key=C#1
lovel=1
offset=4210
sample=Basses_staccato_PP_C#2_RR2.opus
</region>

<region>
hivel=127
key=B2
lovel=1
offset=4752
sample=Basses_staccato_PP_B3_RR2.opus
</region>

<region>
hivel=127
key=B1
lovel=1
sample=Basses_staccato_PP_B2_RR2.opus
</region>

<region>
hivel=127
key=A2
lovel=1
offset=11720
sample=Basses_staccato_PP_A3_RR2.opus
</region>

<region>
hivel=127
key=A1
lovel=1
offset=5504
sample=Basses_staccato_PP_A2_RR2.opus
</region>

<region>
hivel=127
key=A#2
lovel=1
offset=3823
sample=Basses_staccato_PP_A#3_RR2.opus
</region>

<region>
hivel=127
key=A#1
lovel=1
offset=5270
sample=Basses_staccato_PP_A#2_RR2.opus
</region>
</group>

<group>
group_label=RR3_43-84
seq_length=4
seq_position=3
xf_cccurve=gain
xfin_hicc1=84
xfin_locc1=43
xfout_hicc1=125
xfout_locc1=84

<region>
hikey=C4
hivel=127
lokey=G3
lovel=1
offset=4816
pitch_keycenter=G3
sample=Basses_staccato_MF_G4_RR3.opus
</region>

<region>
hivel=127
key=G2
lovel=1
offset=6223
sample=Basses_staccato_MF_G3_RR3.opus
</region>

<region>
hivel=127
key=G1
lovel=1
offset=343
sample=Basses_staccato_MF_G2_RR3.opus
</region>

<region>
hivel=127
key=G#2
lovel=1
offset=2432
sample=Basses_staccato_MF_G#3_RR3.opus
</region>

<region>
hivel=127
key=G#1
lovel=1
offset=1458
sample=Basses_staccato_MF_G#2_RR3.opus
</region>

<region>
hivel=127
key=F3
lovel=1
offset=1843
sample=Basses_staccato_MF_F4_RR3.opus
</region>

<region>
hivel=127
key=F2
lovel=1
offset=1005
sample=Basses_staccato_MF_F3_RR3.opus
</region>

<region>
hivel=127
key=F1
lovel=1
offset=1525
sample=Basses_staccato_MF_F2_RR3.opus
</region>

<region>
hivel=127
key=F#3
lovel=1
offset=7966
sample=Basses_staccato_MF_F#4_RR3.opus
</region>

<region>
hivel=127
key=F#2
lovel=1
offset=2763
sample=Basses_staccato_MF_F#3_RR3.opus
</region>

<region>
hivel=127
key=F#1
lovel=1
offset=1648
sample=Basses_staccato_MF_F#2_RR3.opus
</region>

<region>
hivel=127
key=E3
lovel=1
offset=3849
sample=Basses_staccato_MF_E4_RR3.opus
</region>

<region>
hivel=127
key=E2
lovel=1
offset=5558
sample=Basses_staccato_MF_E3_RR3.opus
</region>

<region>
hivel=127
key=E1
lovel=1
offset=6515
sample=Basses_staccato_MF_E2_RR3.opus
</region>

<region>
hivel=127
key=D3
lovel=1
offset=4478
sample=Basses_staccato_MF_D4_RR3.opus
</region>

<region>
hivel=127
key=D2
lovel=1
offset=4939
sample=Basses_staccato_MF_D3_RR3.opus
</region>

<region>
hivel=127
key=D1
lovel=1
offset=935
sample=Basses_staccato_MF_D2_RR3.opus
</region>

<region>
hivel=127
key=D#3
lovel=1
offset=1071
sample=Basses_staccato_MF_D#4_RR3.opus
</region>

<region>
hivel=127
key=D#2
lovel=1
offset=2611
sample=Basses_staccato_MF_D#3_RR3.opus
</region>

<region>
hivel=127
key=D#1
lovel=1
offset=813
sample=Basses_staccato_MF_D#2_RR3.opus
</region>

<region>
hivel=127
key=C3
lovel=1
offset=630
sample=Basses_staccato_MF_C4_RR3.opus
</region>

<region>
hivel=127
key=C2
lovel=1
offset=1578
sample=Basses_staccato_MF_C3_RR3.opus
</region>

<region>
hivel=127
key=C1
lovel=1
offset=3770
sample=Basses_staccato_MF_C2_RR3.opus
</region>

<region>
hivel=127
key=C#3
lovel=1
offset=4109
sample=Basses_staccato_MF_C#4_RR3.opus
</region>

<region>
hivel=127
key=C#2
lovel=1
offset=2958
sample=Basses_staccato_MF_C#3_RR3.opus
</region>

<region>
hivel=127
key=C#1
lovel=1
offset=4141
sample=Basses_staccato_MF_C#2_RR3.opus
</region>

<region>
hivel=127
key=B2
lovel=1
offset=4188
sample=Basses_staccato_MF_B3_RR3.opus
</region>

<region>
hivel=127
key=B1
lovel=1
offset=4355
sample=Basses_staccato_MF_B2_RR3.opus
</region>

<region>
hivel=127
key=A2
lovel=1
offset=6825
sample=Basses_staccato_MF_A3_RR3.opus
</region>

<region>
hivel=127
key=A1
lovel=1
offset=5128
sample=Basses_staccato_MF_A2_RR3.opus
</region>

<region>
hivel=127
key=A#2
lovel=1
offset=3459
sample=Basses_staccato_MF_A#3_RR3.opus
</region>

<region>
hivel=127
key=A#1
lovel=1
offset=5197
sample=Basses_staccato_MF_A#2_RR3.opus
</region>
</group>

<group>
group_label=RR3_85-127
seq_length=4
seq_position=3
xf_cccurve=gain
xfin_hicc1=127
xfin_locc1=85
xfout_hicc1=127
xfout_locc1=127

<region>
hikey=C4
hivel=127
lokey=G3
lovel=1
pitch_keycenter=G3
sample=Basses_staccato_FF_G4_RR3.opus
</region>

<region>
hivel=127
key=G2
lovel=1
offset=5876
sample=Basses_staccato_FF_G3_RR3.opus
</region>

<region>
hivel=127
key=G1
lovel=1
offset=459
sample=Basses_staccato_FF_G2_RR3.opus
</region>

<region>
hivel=127
key=G#2
lovel=1
sample=Basses_staccato_FF_G#3_RR3.opus
</region>

<region>
hivel=127
key=G#1
lovel=1
offset=469
sample=Basses_staccato_FF_G#2_RR3.opus
</region>

<region>
hivel=127
key=F3
lovel=1
offset=4143
sample=Basses_staccato_FF_F4_RR3.opus
</region>

<region>
hivel=127
key=F2
lovel=1
offset=124
sample=Basses_staccato_FF_F3_RR3.opus
</region>

<region>
hivel=127
key=F1
lovel=1
sample=Basses_staccato_FF_F2_RR3.opus
</region>

<region>
hivel=127
key=F#3
lovel=1
offset=3380
sample=Basses_staccato_FF_F#4_RR3.opus
</region>

<region>
hivel=127
key=F#2
lovel=1
offset=2889
sample=Basses_staccato_FF_F#3_RR3.opus
</region>

<region>
hivel=127
key=F#1
lovel=1
sample=Basses_staccato_FF_F#2_RR3.opus
</region>

<region>
hivel=127
key=E3
lovel=1
sample=Basses_staccato_FF_E4_RR3.opus
</region>

<region>
hivel=127
key=E2
lovel=1
offset=1688
sample=Basses_staccato_FF_E3_RR3.opus
</region>

<region>
hivel=127
key=E1
lovel=1
offset=384
sample=Basses_staccato_FF_E2_RR3.opus
</region>

<region>
hivel=127
key=D3
lovel=1
sample=Basses_staccato_FF_D4_RR3.opus
</region>

<region>
hivel=127
key=D2
lovel=1
sample=Basses_staccato_FF_D3_RR3.opus
</region>

<region>
hivel=127
key=D1
lovel=1
offset=462
sample=Basses_staccato_FF_D2_RR3.opus
</region>

<region>
hivel=127
key=D#3
lovel=1
offset=741
sample=Basses_staccato_FF_D#4_RR3.opus
</region>

<region>
hivel=127
key=D#2
lovel=1
offset=659
sample=Basses_staccato_FF_D#3_RR3.opus
</region>

<region>
hivel=127
key=D#1
lovel=1
offset=605
sample=Basses_staccato_FF_D#2_RR3.opus
</region>

<region>
hivel=127
key=C3
lovel=1
offset=3882
sample=Basses_staccato_FF_C4_RR3.opus
</region>

<region>
hivel=127
key=C2
lovel=1
sample=Basses_staccato_FF_C3_RR3.opus
</region>

<region>
hivel=127
key=C1
lovel=1
offset=6413
sample=Basses_staccato_FF_C2_RR3.opus
</region>

<region>
hivel=127
key=C#3
lovel=1
offset=4951
sample=Basses_staccato_FF_C#4_RR3.opus
</region>

<region>
hivel=127
key=C#2
lovel=1
offset=4694
sample=Basses_staccato_FF_C#3_RR3.opus
</region>

<region>
hivel=127
key=C#1
lovel=1
offset=950
sample=Basses_staccato_FF_C#2_RR3.opus
</region>

<region>
hivel=127
key=B2
lovel=1
offset=3547
sample=Basses_staccato_FF_B3_RR3.opus
</region>

<region>
hivel=127
key=B1
lovel=1
offset=4923
sample=Basses_staccato_FF_B2_RR3.opus
</region>

<region>
hivel=127
key=A2
lovel=1
offset=391
sample=Basses_staccato_FF_A3_RR3.opus
</region>

<region>
hivel=127
key=A1
lovel=1
offset=384
sample=Basses_staccato_FF_A2_RR3.opus
</region>

<region>
hivel=127
key=A#2
lovel=1
offset=2347
sample=Basses_staccato_FF_A#3_RR3.opus
</region>

<region>
hivel=127
key=A#1
lovel=1
offset=230
sample=Basses_staccato_FF_A#2_RR3.opus
</region>
</group>

<group>
group_label=RR3_0-42
seq_length=4
seq_position=3
xf_cccurve=gain
xfin_hicc1=42
xfout_hicc1=84
xfout_locc1=42

<region>
hikey=C4
hivel=127
lokey=G3
lovel=1
offset=1987
pitch_keycenter=G3
sample=Basses_staccato_PP_G4_RR3.opus
</region>

<region>
hivel=127
key=G2
lovel=1
offset=2667
sample=Basses_staccato_PP_G3_RR3.opus
</region>

<region>
hivel=127
key=G1
lovel=1
offset=2504
sample=Basses_staccato_PP_G2_RR3.opus
</region>

<region>
hivel=127
key=G#2
lovel=1
offset=2697
sample=Basses_staccato_PP_G#3_RR3.opus
</region>

<region>
hivel=127
key=G#1
lovel=1
offset=3804
sample=Basses_staccato_PP_G#2_RR3.opus
</region>

<region>
hivel=127
key=F3
lovel=1
offset=6618
sample=Basses_staccato_PP_F4_RR3.opus
</region>

<region>
hivel=127
key=F2
lovel=1
offset=3997
sample=Basses_staccato_PP_F3_RR3.opus
</region>

<region>
hivel=127
key=F1
lovel=1
offset=7231
sample=Basses_staccato_PP_F2_RR3.opus
</region>

<region>
hivel=127
key=F#3
lovel=1
offset=2995
sample=Basses_staccato_PP_F#4_RR3.opus
</region>

<region>
hivel=127
key=F#2
lovel=1
offset=4366
sample=Basses_staccato_PP_F#3_RR3.opus
</region>

<region>
hivel=127
key=F#1
lovel=1
offset=6681
sample=Basses_staccato_PP_F#2_RR3.opus
</region>

<region>
hivel=127
key=E3
lovel=1
offset=4449
sample=Basses_staccato_PP_E4_RR3.opus
</region>

<region>
hivel=127
key=E2
lovel=1
offset=3511
sample=Basses_staccato_PP_E3_RR3.opus
</region>

<region>
hivel=127
key=E1
lovel=1
offset=2365
sample=Basses_staccato_PP_E2_RR3.opus
</region>

<region>
hivel=127
key=D3
lovel=1
offset=4018
sample=Basses_staccato_PP_D4_RR3.opus
</region>

<region>
hivel=127
key=D2
lovel=1
offset=4090
sample=Basses_staccato_PP_D3_RR3.opus
</region>

<region>
hivel=127
key=D1
lovel=1
offset=5036
sample=Basses_staccato_PP_D2_RR3.opus
</region>

<region>
hivel=127
key=D#3
lovel=1
offset=7859
sample=Basses_staccato_PP_D#4_RR3.opus
</region>

<region>
hivel=127
key=D#2
lovel=1
offset=8242
sample=Basses_staccato_PP_D#3_RR3.opus
</region>

<region>
hivel=127
key=D#1
lovel=1
offset=7775
sample=Basses_staccato_PP_D#2_RR3.opus
</region>

<region>
hivel=127
key=C3
lovel=1
offset=6977
sample=Basses_staccato_PP_C4_RR3.opus
</region>

<region>
hivel=127
key=C2
lovel=1
offset=2807
sample=Basses_staccato_PP_C3_RR3.opus
</region>

<region>
hivel=127
key=C1
lovel=1
offset=3499
sample=Basses_staccato_PP_C2_RR3.opus
</region>

<region>
hivel=127
key=C#3
lovel=1
offset=6222
sample=Basses_staccato_PP_C#4_RR3.opus
</region>

<region>
hivel=127
key=C#2
lovel=1
offset=4914
sample=Basses_staccato_PP_C#3_RR3.opus
</region>

<region>
hivel=127
key=C#1
lovel=1
offset=3933
sample=Basses_staccato_PP_C#2_RR3.opus
</region>

<region>
hivel=127
key=B2
lovel=1
offset=5150
sample=Basses_staccato_PP_B3_RR3.opus
</region>

<region>
hivel=127
key=B1
lovel=1
offset=5965
sample=Basses_staccato_PP_B2_RR3.opus
</region>

<region>
hivel=127
key=A2
lovel=1
offset=11487
sample=Basses_staccato_PP_A3_RR3.opus
</region>

<region>
hivel=127
key=A1
lovel=1
offset=7434
sample=Basses_staccato_PP_A2_RR3.opus
</region>

<region>
hivel=127
key=A#2
lovel=1
offset=3947
sample=Basses_staccato_PP_A#3_RR3.opus
</region>

<region>
hivel=127
key=A#1
lovel=1
offset=7518
sample=Basses_staccato_PP_A#2_RR3.opus
</region>
</group>

<group>
group_label=RR4_43-84
seq_length=4
seq_position=4
xf_cccurve=gain
xfin_hicc1=84
xfin_locc1=43
xfout_hicc1=125
xfout_locc1=84

<region>
hikey=C4
hivel=127
lokey=G3
lovel=1
offset=6350
pitch_keycenter=G3
sample=Basses_staccato_MF_G4_RR4.opus
</region>

<region>
hivel=127
key=G2
lovel=1
offset=2987
sample=Basses_staccato_MF_G3_RR4.opus
</region>

<region>
hivel=127
key=G1
lovel=1
offset=3511
sample=Basses_staccato_MF_G2_RR4.opus
</region>

<region>
hivel=127
key=G#2
lovel=1
offset=1887
sample=Basses_staccato_MF_G#3_RR4.opus
</region>

<region>
hivel=127
key=G#1
lovel=1
offset=906
sample=Basses_staccato_MF_G#2_RR4.opus
</region>

<region>
hivel=127
key=F3
lovel=1
offset=2708
sample=Basses_staccato_MF_F4_RR4.opus
</region>

<region>
hivel=127
key=F2
lovel=1
offset=4537
sample=Basses_staccato_MF_F3_RR4.opus
</region>

<region>
hivel=127
key=F1
lovel=1
offset=2062
sample=Basses_staccato_MF_F2_RR4.opus
</region>

<region>
hivel=127
key=F#3
lovel=1
offset=5016
sample=Basses_staccato_MF_F#4_RR4.opus
</region>

<region>
hivel=127
key=F#2
lovel=1
offset=3984
sample=Basses_staccato_MF_F#3_RR4.opus
</region>

<region>
hivel=127
key=F#1
lovel=1
offset=2408
sample=Basses_staccato_MF_F#2_RR4.opus
</region>

<region>
hivel=127
key=E3
lovel=1
offset=1530
sample=Basses_staccato_MF_E4_RR4.opus
</region>

<region>
hivel=127
key=E2
lovel=1
offset=6272
sample=Basses_staccato_MF_E3_RR4.opus
</region>

<region>
hivel=127
key=E1
lovel=1
offset=6496
sample=Basses_staccato_MF_E2_RR4.opus
</region>

<region>
hivel=127
key=D3
lovel=1
offset=7167
sample=Basses_staccato_MF_D4_RR4.opus
</region>

<region>
hivel=127
key=D2
lovel=1
offset=6447
sample=Basses_staccato_MF_D3_RR4.opus
</region>

<region>
hivel=127
key=D1
lovel=1
offset=502
sample=Basses_staccato_MF_D2_RR4.opus
</region>

<region>
hivel=127
key=D#3
lovel=1
offset=771
sample=Basses_staccato_MF_D#4_RR4.opus
</region>

<region>
hivel=127
key=D#2
lovel=1
offset=4576
sample=Basses_staccato_MF_D#3_RR4.opus
</region>

<region>
hivel=127
key=D#1
lovel=1
offset=178
sample=Basses_staccato_MF_D#2_RR4.opus
</region>

<region>
hivel=127
key=C3
lovel=1
offset=4156
sample=Basses_staccato_MF_C4_RR4.opus
</region>

<region>
hivel=127
key=C2
lovel=1
offset=2422
sample=Basses_staccato_MF_C3_RR4.opus
</region>

<region>
hivel=127
key=C1
lovel=1
offset=2714
sample=Basses_staccato_MF_C2_RR4.opus
</region>

<region>
hivel=127
key=C#3
lovel=1
offset=4935
sample=Basses_staccato_MF_C#4_RR4.opus
</region>

<region>
hivel=127
key=C#2
lovel=1
sample=Basses_staccato_MF_C#3_RR4.opus
</region>

<region>
hivel=127
key=C#1
lovel=1
offset=7068
sample=Basses_staccato_MF_C#2_RR4.opus
</region>

<region>
hivel=127
key=B2
lovel=1
offset=3892
sample=Basses_staccato_MF_B3_RR4.opus
</region>

<region>
hivel=127
key=B1
lovel=1
offset=1068
sample=Basses_staccato_MF_B2_RR4.opus
</region>

<region>
hivel=127
key=A2
lovel=1
offset=4140
sample=Basses_staccato_MF_A3_RR4.opus
</region>

<region>
hivel=127
key=A1
lovel=1
offset=4634
sample=Basses_staccato_MF_A2_RR4.opus
</region>

<region>
hivel=127
key=A#2
lovel=1
offset=3255
sample=Basses_staccato_MF_A#3_RR4.opus
</region>

<region>
hivel=127
key=A#1
lovel=1
offset=5501
sample=Basses_staccato_MF_A#2_RR4.opus
</region>
</group>

<group>
group_label=RR4_85-127
seq_length=4
seq_position=4
xf_cccurve=gain
xfin_hicc1=127
xfin_locc1=85
xfout_hicc1=127
xfout_locc1=127

<region>
hikey=C4
hivel=127
lokey=G3
lovel=1
offset=219
pitch_keycenter=G3
sample=Basses_staccato_FF_G4_RR4.opus
</region>

<region>
hivel=127
key=G2
lovel=1
offset=5891
sample=Basses_staccato_FF_G3_RR4.opus
</region>

<region>
hivel=127
key=G1
lovel=1
sample=Basses_staccato_FF_G2_RR4.opus
</region>

<region>
hivel=127
key=G#2
lovel=1
sample=Basses_staccato_FF_G#3_RR4.opus
</region>

<region>
hivel=127
key=G#1
lovel=1
sample=Basses_staccato_FF_G#2_RR4.opus
</region>

<region>
hivel=127
key=F3
lovel=1
offset=5313
sample=Basses_staccato_FF_F4_RR4.opus
</region>

<region>
hivel=127
key=F2
lovel=1
offset=92
sample=Basses_staccato_FF_F3_RR4.opus
</region>

<region>
hivel=127
key=F1
lovel=1
offset=630
sample=Basses_staccato_FF_F2_RR4.opus
</region>

<region>
hivel=127
key=F#3
lovel=1
sample=Basses_staccato_FF_F#4_RR4.opus
</region>

<region>
hivel=127
key=F#2
lovel=1
offset=3822
sample=Basses_staccato_FF_F#3_RR4.opus
</region>

<region>
hivel=127
key=F#1
lovel=1
sample=Basses_staccato_FF_F#2_RR4.opus
</region>

<region>
hivel=127
key=E3
lovel=1
sample=Basses_staccato_FF_E4_RR4.opus
</region>

<region>
hivel=127
key=E2
lovel=1
offset=525
sample=Basses_staccato_FF_E3_RR4.opus
</region>

<region>
hivel=127
key=E1
lovel=1
sample=Basses_staccato_FF_E2_RR4.opus
</region>

<region>
hivel=127
key=D3
lovel=1
sample=Basses_staccato_FF_D4_RR4.opus
</region>

<region>
hivel=127
key=D2
lovel=1
offset=641
sample=Basses_staccato_FF_D3_RR4.opus
</region>

<region>
hivel=127
key=D1
lovel=1
offset=290
sample=Basses_staccato_FF_D2_RR4.opus
</region>

<region>
hivel=127
key=D#3
lovel=1
offset=677
sample=Basses_staccato_FF_D#4_RR4.opus
</region>

<region>
hivel=127
key=D#2
lovel=1
offset=182
sample=Basses_staccato_FF_D#3_RR4.opus
</region>

<region>
hivel=127
key=D#1
lovel=1
sample=Basses_staccato_FF_D#2_RR4.opus
</region>

<region>
hivel=127
key=C3
lovel=1
offset=4221
sample=Basses_staccato_FF_C4_RR4.opus
</region>

<region>
hivel=127
key=C2
lovel=1
sample=Basses_staccato_FF_C3_RR4.opus
</region>

<region>
hivel=127
key=C1
lovel=1
sample=Basses_staccato_FF_C2_RR4.opus
</region>

<region>
hivel=127
key=C#3
lovel=1
offset=142
sample=Basses_staccato_FF_C#4_RR4.opus
</region>

<region>
hivel=127
key=C#2
lovel=1
offset=2024
sample=Basses_staccato_FF_C#3_RR4.opus
</region>

<region>
hivel=127
key=C#1
lovel=1
sample=Basses_staccato_FF_C#2_RR4.opus
</region>

<region>
hivel=127
key=B2
lovel=1
offset=4308
sample=Basses_staccato_FF_B3_RR4.opus
</region>

<region>
hivel=127
key=B1
lovel=1
offset=4674
sample=Basses_staccato_FF_B2_RR4.opus
</region>

<region>
hivel=127
key=A2
lovel=1
sample=Basses_staccato_FF_A3_RR4.opus
</region>

<region>
hivel=127
key=A1
lovel=1
offset=320
sample=Basses_staccato_FF_A2_RR4.opus
</region>

<region>
hivel=127
key=A#2
lovel=1
offset=2874
sample=Basses_staccato_FF_A#3_RR4.opus
</region>

<region>
hivel=127
key=A#1
lovel=1
offset=4748
sample=Basses_staccato_FF_A#2_RR4.opus
</region>
</group>

<group>
group_label=RR4_0-42
seq_length=4
seq_position=4
xf_cccurve=gain
xfin_hicc1=42
xfout_hicc1=84
xfout_locc1=42

<region>
hikey=C4
hivel=127
lokey=G3
lovel=1
offset=767
pitch_keycenter=G3
sample=Basses_staccato_PP_G4_RR4.opus
</region>

<region>
hivel=127
key=G2
lovel=1
offset=3458
sample=Basses_staccato_PP_G3_RR4.opus
</region>

<region>
hivel=127
key=G1
lovel=1
offset=5410
sample=Basses_staccato_PP_G2_RR4.opus
</region>

<region>
hivel=127
key=G#2
lovel=1
offset=2222
sample=Basses_staccato_PP_G#3_RR4.opus
</region>

<region>
hivel=127
key=G#1
lovel=1
offset=2320
sample=Basses_staccato_PP_G#2_RR4.opus
</region>

<region>
hivel=127
key=F3
lovel=1
offset=6951
sample=Basses_staccato_PP_F4_RR4.opus
</region>

<region>
hivel=127
key=F2
lovel=1
offset=6470
sample=Basses_staccato_PP_F3_RR4.opus
</region>

<region>
hivel=127
key=F1
lovel=1
offset=6102
sample=Basses_staccato_PP_F2_RR4.opus
</region>

<region>
hivel=127
key=F#3
lovel=1
offset=4104
sample=Basses_staccato_PP_F#4_RR4.opus
</region>

<region>
hivel=127
key=F#2
lovel=1
offset=6168
sample=Basses_staccato_PP_F#3_RR4.opus
</region>

<region>
hivel=127
key=F#1
lovel=1
offset=5050
sample=Basses_staccato_PP_F#2_RR4.opus
</region>

<region>
hivel=127
key=E3
lovel=1
offset=5983
sample=Basses_staccato_PP_E4_RR4.opus
</region>

<region>
hivel=127
key=E2
lovel=1
offset=3668
sample=Basses_staccato_PP_E3_RR4.opus
</region>

<region>
hivel=127
key=E1
lovel=1
offset=3827
sample=Basses_staccato_PP_E2_RR4.opus
</region>

<region>
hivel=127
key=D3
lovel=1
offset=6790
sample=Basses_staccato_PP_D4_RR4.opus
</region>

<region>
hivel=127
key=D2
lovel=1
offset=4795
sample=Basses_staccato_PP_D3_RR4.opus
</region>

<region>
hivel=127
key=D1
lovel=1
offset=4284
sample=Basses_staccato_PP_D2_RR4.opus
</region>

<region>
hivel=127
key=D#3
lovel=1
offset=7530
sample=Basses_staccato_PP_D#4_RR4.opus
</region>

<region>
hivel=127
key=D#2
lovel=1
offset=5091
sample=Basses_staccato_PP_D#3_RR4.opus
</region>

<region>
hivel=127
key=D#1
lovel=1
offset=7007
sample=Basses_staccato_PP_D#2_RR4.opus
</region>

<region>
hivel=127
key=C3
lovel=1
offset=12932
sample=Basses_staccato_PP_C4_RR4.opus
</region>

<region>
hivel=127
key=C2
lovel=1
offset=5533
sample=Basses_staccato_PP_C3_RR4.opus
</region>

<region>
hivel=127
key=C1
lovel=1
offset=4429
sample=Basses_staccato_PP_C2_RR4.opus
</region>

<region>
hivel=127
key=C#3
lovel=1
offset=8183
sample=Basses_staccato_PP_C#4_RR4.opus
</region>

<region>
hivel=127
key=C#2
lovel=1
offset=3925
sample=Basses_staccato_PP_C#3_RR4.opus
</region>

<region>
hivel=127
key=C#1
lovel=1
offset=10769
sample=Basses_staccato_PP_C#2_RR4.opus
</region>

<region>
hivel=127
key=B2
lovel=1
sample=Basses_staccato_PP_B3_RR4.opus
</region>

<region>
hivel=127
key=B1
lovel=1
offset=7842
sample=Basses_staccato_PP_B2_RR4.opus
</region>

<region>
hivel=127
key=A2
lovel=1
offset=11504
sample=Basses_staccato_PP_A3_RR4.opus
</region>

<region>
hivel=127
key=A1
lovel=1
offset=5754
sample=Basses_staccato_PP_A2_RR4.opus
</region>

<region>
hivel=127
key=A#2
lovel=1
offset=4906
sample=Basses_staccato_PP_A#3_RR4.opus
</region>

<region>
hivel=127
key=A#1
lovel=1
offset=6765
sample=Basses_staccato_PP_A#2_RR4.opus
</region>
</group>